<?xml version="1.0" encoding="utf-8"?>
<!-- Generator: Adobe Illustrator 16.0.0, SVG Export Plug-In . SVG Version: 6.00 Build 0)  -->
<!DOCTYPE svg PUBLIC "-//W3C//DTD SVG 1.1//EN" "http://www.w3.org/Graphics/SVG/1.1/DTD/svg11.dtd">
<svg version="1.1" id="Layer_1" xmlns="http://www.w3.org/2000/svg" xmlns:xlink="http://www.w3.org/1999/xlink" x="0px" y="0px"
	 width="2000px" height="960px" viewBox="0 0 2000 960" enable-background="new 0 0 2000 960" xml:space="preserve">
<g>
	<g>
		<linearGradient id="SVGID_1_" gradientUnits="userSpaceOnUse" x1="390.021" y1="383.2764" x2="294.1283" y2="665.5372">
			<stop  offset="0" style="stop-color:#F60000"/>
			<stop  offset="1" style="stop-color:#FFB800"/>
		</linearGradient>
		<path fill="url(#SVGID_1_)" d="M369.335,610.257l1.377-5.227v-0.012v0.003l43.526-164.988c4.98-18.867-6.28-34.16-25.148-34.16
			h-31.51c-18.867,0-38.197,15.293-43.176,34.16l-58.008,219.874h34.99C348.021,659.907,364.94,623.968,369.335,610.257z"/>
		<linearGradient id="SVGID_2_" gradientUnits="userSpaceOnUse" x1="526.7612" y1="477.1196" x2="668.894" y2="477.1196">
			<stop  offset="0" style="stop-color:#DF3BFF"/>
			<stop  offset="1" style="stop-color:#380FB0"/>
		</linearGradient>
		<path fill="url(#SVGID_2_)" d="M654.871,428.079l-26.798-16.576c-16.045-9.925-39.394-6.382-52.149,7.913l-49.163,55.105
			l65.883,73.846l68.189-76.434C673.588,457.637,670.915,438.004,654.871,428.079z"/>
		<linearGradient id="SVGID_3_" gradientUnits="userSpaceOnUse" x1="399.1445" y1="404.9644" x2="554.58" y2="627.678">
			<stop  offset="0" style="stop-color:#FFB800"/>
			<stop  offset="1" style="stop-color:#F60000"/>
		</linearGradient>
		<path fill="url(#SVGID_3_)" d="M526.761,474.521l-49.163-55.105c-7.49-8.396-18.633-13.047-29.806-13.476v-0.066h-32.117h-50.178
			h-7.917c-14.064,0-28.373,8.5-36.815,20.638c0.39-0.346,17.6-15.242,43.717,14.003v-0.001l96.355,107.901l65.91,73.81
			l65.896-73.857L526.761,474.521z"/>
		<linearGradient id="SVGID_4_" gradientUnits="userSpaceOnUse" x1="630.9277" y1="396.1816" x2="794.0946" y2="657.5599">
			<stop  offset="0" style="stop-color:#DF3BFF"/>
			<stop  offset="1" style="stop-color:#380FB0"/>
		</linearGradient>
		<path fill="url(#SVGID_4_)" d="M739.123,440.033c-4.98-18.867-24.311-34.16-43.178-34.16h-6.402h-25.107H596.11
			c18.864,0,38.193,15.293,43.173,34.16l8.645,32.778h0.005l36.866,139.745c5.46,15.034,23.435,47.351,77.151,47.351h35.176
			L739.123,440.033z"/>
		<defs>
			<filter id="Adobe_OpacityMaskFilter" filterUnits="userSpaceOnUse" x="649.327" y="405.874" width="147.429" height="252.631">
				<feFlood  style="flood-color:white;flood-opacity:1" result="back"/>
				<feBlend  in="SourceGraphic" in2="back" mode="normal"/>
			</filter>
		</defs>
		<mask maskUnits="userSpaceOnUse" x="649.327" y="405.874" width="147.429" height="252.631" id="SVGID_5_">
			<g filter="url(#Adobe_OpacityMaskFilter)">
				<defs>
					
						<filter id="Adobe_OpacityMaskFilter_1_" filterUnits="userSpaceOnUse" x="649.327" y="405.874" width="147.429" height="252.631">
						<feFlood  style="flood-color:white;flood-opacity:1" result="back"/>
						<feBlend  in="SourceGraphic" in2="back" mode="normal"/>
					</filter>
				</defs>
				<mask maskUnits="userSpaceOnUse" x="649.327" y="405.874" width="147.429" height="252.631" id="SVGID_5_">
					<g filter="url(#Adobe_OpacityMaskFilter_1_)">
					</g>
				</mask>
				<linearGradient id="SVGID_6_" gradientUnits="userSpaceOnUse" x1="416.5117" y1="383.2637" x2="723.2278" y2="521.6244">
					<stop  offset="0" style="stop-color:#FFFFFF"/>
					<stop  offset="1" style="stop-color:#000000"/>
				</linearGradient>
				<path mask="url(#SVGID_5_)" fill="url(#SVGID_6_)" d="M692.5,440.033l8.646,32.778h0.004l36.866,139.745
					c4.781,13.167,19.162,39.586,58.74,45.948l-57.632-218.472c-4.98-18.867-24.311-34.16-43.178-34.16h-6.402h-25.107h-15.109
					C668.19,405.874,687.52,421.167,692.5,440.033z"/>
			</g>
		</mask>
		<linearGradient id="SVGID_7_" gradientUnits="userSpaceOnUse" x1="416.5117" y1="383.2637" x2="723.2278" y2="521.6244">
			<stop  offset="0" style="stop-color:#FFFFFF"/>
			<stop  offset="1" style="stop-color:#FFFFFF"/>
		</linearGradient>
		<path fill="url(#SVGID_7_)" d="M692.5,440.033l8.646,32.778h0.004l36.866,139.745c4.781,13.167,19.162,39.586,58.74,45.948
			l-57.632-218.472c-4.98-18.867-24.311-34.16-43.178-34.16h-6.402h-25.107h-15.109C668.19,405.874,687.52,421.167,692.5,440.033z"
			/>
		<defs>
			
				<filter id="Adobe_OpacityMaskFilter_2_" filterUnits="userSpaceOnUse" x="376.906" y="405.874" width="215.738" height="169.454">
				<feFlood  style="flood-color:white;flood-opacity:1" result="back"/>
				<feBlend  in="SourceGraphic" in2="back" mode="normal"/>
			</filter>
		</defs>
		<mask maskUnits="userSpaceOnUse" x="376.906" y="405.874" width="215.738" height="169.454" id="SVGID_8_">
			<g filter="url(#Adobe_OpacityMaskFilter_2_)">
				<defs>
					
						<filter id="Adobe_OpacityMaskFilter_3_" filterUnits="userSpaceOnUse" x="376.906" y="405.874" width="215.738" height="169.454">
						<feFlood  style="flood-color:white;flood-opacity:1" result="back"/>
						<feBlend  in="SourceGraphic" in2="back" mode="normal"/>
					</filter>
				</defs>
				<mask maskUnits="userSpaceOnUse" x="376.906" y="405.874" width="215.738" height="169.454" id="SVGID_8_">
					<g filter="url(#Adobe_OpacityMaskFilter_3_)">
					</g>
				</mask>
				<linearGradient id="SVGID_9_" gradientUnits="userSpaceOnUse" x1="287.314" y1="478.7153" x2="499.1144" y2="490.1116">
					<stop  offset="0" style="stop-color:#FFFFFF"/>
					<stop  offset="1" style="stop-color:#000000"/>
				</linearGradient>
				<path mask="url(#SVGID_8_)" fill="url(#SVGID_9_)" d="M568.591,575.327l24.053-26.961l-65.883-73.846l-49.163-55.105
					c-7.49-8.396-18.633-13.047-29.806-13.476v-0.066h-32.117h-38.77c7.042,0.946,16.088,4.887,27,15.111v-0.001l105.552,98.922
					L568.591,575.327z"/>
			</g>
		</mask>
		<linearGradient id="SVGID_10_" gradientUnits="userSpaceOnUse" x1="287.314" y1="478.7153" x2="499.1144" y2="490.1116">
			<stop  offset="0" style="stop-color:#FFFFFF"/>
			<stop  offset="1" style="stop-color:#FFFFFF"/>
		</linearGradient>
		<path fill="url(#SVGID_10_)" d="M568.591,575.327l24.053-26.961l-65.883-73.846l-49.163-55.105
			c-7.49-8.396-18.633-13.047-29.806-13.476v-0.066h-32.117h-38.77c7.042,0.946,16.088,4.887,27,15.111v-0.001l105.552,98.922
			L568.591,575.327z"/>
	</g>
	<g>
		<g>
			<path fill="#231F20" d="M845.792,450.2c7.138,0,13.488,1.149,19.051,3.445c5.562,2.297,10.171,5.556,13.824,9.777
				c3.653,4.222,6.277,9.374,7.872,15.456c1.596,6.085,1.999,12.881,1.209,20.392c-0.797,7.574-2.631,14.401-5.506,20.485
				c-2.874,6.083-6.583,11.266-11.131,15.548c-4.547,4.283-9.844,7.574-15.889,9.871c-6.046,2.295-12.638,3.444-19.776,3.444
				c-7.139,0-13.505-1.149-19.098-3.444c-5.594-2.297-10.23-5.588-13.907-9.871c-3.679-4.282-6.33-9.465-7.957-15.548
				c-1.627-6.083-2.041-12.911-1.246-20.485c0.79-7.51,2.636-14.307,5.542-20.392c2.905-6.082,6.643-11.234,11.216-15.456
				c4.571-4.221,9.895-7.479,15.971-9.777C832.045,451.349,838.653,450.2,845.792,450.2z M837.308,530.927
				c7.945,0,14.107-2.668,18.486-8.007c4.378-5.338,7.11-13.16,8.193-23.464c1.083-10.304,0-18.157-3.25-23.557
				c-3.25-5.401-8.849-8.101-16.793-8.101c-8.07,0-14.314,2.716-18.734,8.147c-4.42,5.432-7.167,13.268-8.244,23.511
				c-1.076,10.242,0.027,18.048,3.312,23.417C823.56,528.243,829.238,530.927,837.308,530.927z"/>
			<path fill="#231F20" d="M935.207,451.69l-10.383,98.791c-0.437,4.158-1.392,8.068-2.862,11.732
				c-1.472,3.662-3.548,6.873-6.227,9.637c-2.681,2.761-6.044,4.935-10.089,6.518c-4.046,1.582-8.862,2.374-14.45,2.374
				c-2.173,0-4.175-0.14-6.008-0.419s-3.678-0.73-5.538-1.35l2.047-12.384c0.315-1.243,0.897-2.034,1.739-2.375
				c0.843-0.341,2.413-0.512,4.709-0.512c2.295,0,4.261-0.232,5.893-0.698c1.632-0.466,2.982-1.211,4.053-2.235
				c1.069-1.023,1.893-2.373,2.474-4.05c0.579-1.676,1-3.757,1.261-6.238l10.383-98.791H935.207z M941.579,423.85
				c-0.209,1.988-0.81,3.85-1.798,5.586c-0.991,1.739-2.221,3.259-3.692,4.563c-1.472,1.304-3.149,2.343-5.03,3.119
				c-1.883,0.776-3.847,1.164-5.896,1.164c-1.986,0-3.823-0.387-5.51-1.164c-1.688-0.776-3.114-1.815-4.281-3.119
				s-2.046-2.824-2.64-4.563c-0.593-1.737-0.785-3.599-0.577-5.586c0.215-2.048,0.805-3.972,1.771-5.772
				c0.965-1.8,2.168-3.353,3.608-4.655c1.44-1.304,3.086-2.343,4.937-3.12c1.851-0.775,3.769-1.164,5.755-1.164
				c2.049,0,3.932,0.389,5.651,1.164c1.718,0.777,3.175,1.816,4.374,3.12c1.197,1.303,2.104,2.855,2.723,4.655
				C941.591,419.878,941.794,421.802,941.579,423.85z"/>
			<path fill="#231F20" d="M1001.752,450.2c7.137,0,13.488,1.149,19.051,3.445c5.563,2.297,10.17,5.556,13.824,9.777
				c3.652,4.222,6.277,9.374,7.873,15.456c1.594,6.085,1.998,12.881,1.208,20.392c-0.796,7.574-2.63,14.401-5.505,20.485
				s-6.584,11.266-11.131,15.548c-4.548,4.283-9.844,7.574-15.889,9.871c-6.046,2.295-12.639,3.444-19.776,3.444
				c-7.139,0-13.505-1.149-19.098-3.444c-5.595-2.297-10.23-5.588-13.907-9.871c-3.679-4.282-6.331-9.465-7.956-15.548
				c-1.627-6.083-2.041-12.911-1.246-20.485c0.79-7.51,2.636-14.307,5.542-20.392c2.905-6.082,6.643-11.234,11.215-15.456
				c4.571-4.221,9.895-7.479,15.972-9.777C988.005,451.349,994.612,450.2,1001.752,450.2z M993.268,530.927
				c7.945,0,14.105-2.668,18.485-8.007c4.378-5.338,7.109-13.16,8.192-23.464c1.083-10.304,0-18.157-3.25-23.557
				c-3.25-5.401-8.848-8.101-16.793-8.101c-8.071,0-14.315,2.716-18.734,8.147c-4.421,5.432-7.167,13.268-8.244,23.511
				c-1.077,10.242,0.026,18.048,3.312,23.417C979.52,528.243,985.197,530.927,993.268,530.927z"/>
			<path fill="#231F20" d="M1056.638,547.222l10.04-95.532h14.061c2.979,0,4.789,1.396,5.426,4.19l0.747,7.076
				c1.871-1.862,3.804-3.568,5.798-5.121c1.993-1.55,4.09-2.886,6.286-4.003c2.197-1.117,4.525-2.002,6.983-2.654
				c2.457-0.651,5.115-0.978,7.971-0.978c6.021,0,10.801,1.63,14.338,4.888c3.535,3.259,5.982,7.589,7.341,12.989
				c1.822-3.166,3.97-5.881,6.443-8.147c2.472-2.265,5.117-4.111,7.937-5.54c2.819-1.427,5.771-2.481,8.854-3.166
				c3.082-0.682,6.143-1.024,9.186-1.024c5.275,0,9.879,0.808,13.806,2.421c3.929,1.615,7.124,3.973,9.592,7.077
				c2.467,3.104,4.194,6.891,5.184,11.36s1.18,9.59,0.573,15.363l-6.39,60.802h-22.998l6.39-60.802
				c0.639-6.083-0.215-10.661-2.56-13.734c-2.348-3.073-6.097-4.609-11.249-4.609c-2.359,0-4.589,0.405-6.691,1.211
				c-2.102,0.807-3.994,1.971-5.675,3.492c-1.681,1.521-3.076,3.43-4.186,5.726c-1.111,2.297-1.822,4.935-2.135,7.914l-6.392,60.802
				h-23.092l6.391-60.802c0.672-6.393-0.127-11.048-2.396-13.966c-2.27-2.917-5.918-4.376-10.945-4.376
				c-3.291,0-6.465,0.824-9.523,2.467c-3.061,1.646-5.982,3.896-8.764,6.751l-7.351,69.926H1056.638z"/>
			<path fill="#231F20" d="M1263.112,450.2c6.021,0,11.459,0.963,16.316,2.886c4.856,1.925,8.921,4.735,12.196,8.427
				c3.274,3.693,5.653,8.226,7.138,13.594c1.483,5.37,1.865,11.499,1.141,18.389c-0.183,1.739-0.413,3.183-0.688,4.33
				c-0.276,1.149-0.65,2.048-1.122,2.7c-0.474,0.651-1.065,1.117-1.776,1.397c-0.713,0.279-1.596,0.419-2.65,0.419h-59.032
				c-0.349,9.809,1.532,17.009,5.644,21.601c4.109,4.595,9.951,6.891,17.525,6.891c3.725,0,6.982-0.433,9.773-1.303
				c2.791-0.869,5.252-1.831,7.381-2.887c2.127-1.055,3.998-2.017,5.61-2.886c1.612-0.869,3.131-1.304,4.56-1.304
				c0.931,0,1.718,0.187,2.363,0.559c0.642,0.373,1.176,0.9,1.603,1.583l5.823,8.379c-2.86,2.98-5.977,5.48-9.355,7.496
				c-3.377,2.018-6.852,3.632-10.425,4.842c-3.572,1.211-7.17,2.063-10.79,2.561c-3.623,0.496-7.108,0.745-10.46,0.745
				c-6.643,0-12.702-1.104-18.182-3.306c-5.48-2.203-10.104-5.462-13.87-9.776c-3.77-4.314-6.527-9.652-8.28-16.016
				c-1.752-6.361-2.188-13.733-1.307-22.113c0.685-6.518,2.383-12.647,5.098-18.389c2.714-5.741,6.265-10.739,10.654-14.991
				c4.39-4.25,9.554-7.619,15.495-10.103C1249.433,451.443,1255.974,450.2,1263.112,450.2z M1261.846,466.681
				c-6.704,0-12.149,1.894-16.333,5.68c-4.185,3.787-7.171,9.156-8.956,16.108h43.203c0.313-2.98,0.204-5.788-0.324-8.426
				c-0.53-2.639-1.527-4.95-2.994-6.937c-1.469-1.986-3.415-3.553-5.839-4.702C1268.178,467.255,1265.259,466.681,1261.846,466.681z
				"/>
			<path fill="#231F20" d="M1312.97,547.222l10.04-95.532h14.059c2.98,0,4.789,1.396,5.428,4.19l0.788,7.542
				c2.133-1.986,4.355-3.786,6.667-5.4c2.312-1.614,4.724-3.01,7.238-4.19c2.513-1.179,5.168-2.08,7.965-2.701
				c2.796-0.619,5.809-0.931,9.036-0.931c5.215,0,9.746,0.885,13.596,2.654c3.848,1.769,6.954,4.252,9.319,7.449
				c2.364,3.197,4.01,7.016,4.941,11.453c0.931,4.438,1.114,9.327,0.553,14.665l-6.39,60.802h-22.998l6.39-60.802
				c0.613-5.833-0.262-10.35-2.626-13.547c-2.364-3.197-6.247-4.795-11.648-4.795c-3.973,0-7.791,0.9-11.456,2.701
				c-3.666,1.801-7.213,4.252-10.643,7.355l-7.261,69.088H1312.97z"/>
			<path fill="#231F20" d="M1450.057,548.712c-8.255,0-14.372-2.343-18.349-7.03c-3.976-4.686-5.53-11.158-4.663-19.414
				l5.607-53.353h-9.684c-1.243,0-2.27-0.403-3.084-1.21c-0.816-0.806-1.141-2.017-0.971-3.632l0.959-9.125l15.628-2.514
				l7.582-26.071c0.379-1.24,1.054-2.202,2.026-2.886c0.971-0.682,2.141-1.024,3.506-1.024h11.918l-3.16,30.075h25.14l-1.723,16.387
				h-25.14l-5.441,51.77c-0.313,2.979,0.188,5.307,1.501,6.983c1.313,1.676,3.211,2.515,5.693,2.515c1.429,0,2.64-0.17,3.641-0.513
				c0.997-0.34,1.873-0.698,2.625-1.07c0.753-0.373,1.427-0.729,2.023-1.071c0.593-0.341,1.17-0.513,1.728-0.513
				c0.684,0,1.224,0.172,1.623,0.513c0.396,0.341,0.809,0.854,1.235,1.536l5.716,11.173c-3.646,2.793-7.717,4.904-12.211,6.332
				C1459.287,547.997,1454.713,548.712,1450.057,548.712z"/>
			<path fill="#231F20" d="M1541.881,450.2c7.138,0,13.488,1.149,19.052,3.445c5.562,2.297,10.17,5.556,13.824,9.777
				c3.653,4.222,6.276,9.374,7.872,15.456c1.596,6.085,1.999,12.881,1.209,20.392c-0.795,7.574-2.632,14.401-5.506,20.485
				c-2.873,6.083-6.584,11.266-11.13,15.548c-4.548,4.283-9.845,7.574-15.89,9.871c-6.046,2.295-12.639,3.444-19.775,3.444
				c-7.139,0-13.506-1.149-19.099-3.444c-5.593-2.297-10.229-5.588-13.906-9.871c-3.679-4.282-6.331-9.465-7.957-15.548
				c-1.627-6.083-2.04-12.911-1.244-20.485c0.789-7.51,2.636-14.307,5.541-20.392c2.903-6.082,6.644-11.234,11.215-15.456
				c4.571-4.221,9.896-7.479,15.972-9.777C1528.135,451.349,1534.742,450.2,1541.881,450.2z M1533.396,530.927
				c7.945,0,14.107-2.668,18.486-8.007c4.379-5.338,7.109-13.16,8.191-23.464c1.084-10.304,0.001-18.157-3.25-23.557
				c-3.25-5.401-8.848-8.101-16.793-8.101c-8.069,0-14.314,2.716-18.732,8.147c-4.422,5.432-7.168,13.268-8.246,23.511
				c-1.075,10.242,0.028,18.048,3.313,23.417C1519.649,528.243,1525.327,530.927,1533.396,530.927z"/>
			<path fill="#231F20" d="M1596.768,547.222l10.041-95.532h13.502c2.357,0,3.957,0.435,4.797,1.303
				c0.84,0.871,1.302,2.359,1.393,4.469l0.183,11.546c4.033-5.896,8.526-10.552,13.479-13.967
				c4.952-3.413,10.283-5.121,15.995-5.121c4.716,0,8.513,1.087,11.389,3.259l-4.79,17.226c-0.303,1.117-0.791,1.908-1.459,2.375
				c-0.67,0.465-1.534,0.698-2.588,0.698c-0.932,0-2.182-0.217-3.75-0.652c-1.567-0.434-3.687-0.652-6.354-0.652
				c-4.781,0-9.017,1.32-12.707,3.958c-3.692,2.639-6.983,6.502-9.879,11.592l-6.252,59.498H1596.768z"/>
			<path fill="#231F20" d="M1737.626,470.312c-0.726,0.994-1.452,1.692-2.175,2.096c-0.728,0.404-1.617,0.605-2.671,0.605
				c-1.118,0-2.281-0.311-3.487-0.932c-1.207-0.62-2.608-1.318-4.202-2.094c-1.595-0.776-3.429-1.474-5.506-2.096
				c-2.077-0.619-4.574-0.931-7.491-0.931c-4.532,0-8.202,0.963-11.012,2.886c-2.81,1.925-4.378,4.439-4.703,7.542
				c-0.215,2.049,0.27,3.771,1.459,5.168c1.188,1.396,2.827,2.623,4.92,3.678c2.093,1.056,4.493,2.002,7.197,2.839
				c2.705,0.838,5.464,1.755,8.277,2.748c2.813,0.993,5.549,2.126,8.211,3.398c2.658,1.273,4.986,2.887,6.985,4.842
				c1.997,1.956,3.52,4.3,4.569,7.03c1.046,2.732,1.367,6.021,0.963,9.87c-0.483,4.595-1.766,8.831-3.849,12.709
				c-2.084,3.881-4.89,7.232-8.413,10.057c-3.525,2.825-7.744,5.027-12.659,6.61s-10.445,2.375-16.591,2.375
				c-3.291,0-6.473-0.296-9.544-0.885c-3.073-0.591-5.997-1.411-8.773-2.468c-2.774-1.055-5.313-2.296-7.616-3.725
				c-2.302-1.428-4.295-2.979-5.98-4.655l6.228-8.752c0.792-1.055,1.685-1.863,2.675-2.421c0.989-0.559,2.197-0.838,3.625-0.838
				s2.735,0.405,3.924,1.211c1.187,0.807,2.57,1.676,4.148,2.606c1.578,0.932,3.458,1.801,5.64,2.607
				c2.181,0.808,5.007,1.211,8.483,1.211c2.73,0,5.111-0.326,7.134-0.979c2.024-0.651,3.727-1.504,5.111-2.56
				c1.382-1.055,2.442-2.282,3.181-3.678c0.734-1.396,1.183-2.84,1.34-4.33c0.234-2.235-0.242-4.064-1.426-5.493
				c-1.186-1.428-2.824-2.669-4.916-3.725c-2.093-1.055-4.508-2.002-7.243-2.84c-2.737-0.838-5.527-1.753-8.37-2.747
				c-2.845-0.992-5.609-2.156-8.293-3.492c-2.686-1.334-5.021-3.025-7.007-5.075c-1.99-2.048-3.495-4.562-4.518-7.542
				c-1.021-2.979-1.31-6.579-0.865-10.801c0.411-3.91,1.578-7.634,3.501-11.172c1.924-3.539,4.529-6.625,7.818-9.265
				c3.287-2.638,7.264-4.749,11.932-6.332c4.666-1.583,9.947-2.375,15.847-2.375c6.579,0,12.454,1.087,17.627,3.259
				c5.173,2.174,9.372,5.028,12.601,8.566L1737.626,470.312z"/>
		</g>
		<g>
			<path fill="#F7941E" d="M1027.965,625.393h-11.92c0-2.85-0.629-7.737-1.883-14.667h-17.175c-0.941,2.224-1.751,4.236-2.431,6.04
				c-1.673,4.287-2.549,7.162-2.627,8.627h-11.214c0.079-0.967,3.856-9.34,11.333-25.115c7.475-15.776,11.292-24.423,11.449-25.939
				h14.038c0,2.955,1.739,11.41,5.216,25.37C1026.227,613.667,1027.965,622.229,1027.965,625.393z M1013.063,603.237
				c-2.718-13.411-4.077-20.704-4.077-21.881h-0.589c-0.104,0.916-3.071,8.21-8.9,21.881H1013.063z"/>
			<path fill="#F7941E" d="M1069.843,598.571c0,2.301-0.353,6.614-1.059,12.94s-1.059,10.953-1.059,13.881l-10.116,0.391
				c0-1.253,0.431-4.984,1.294-11.194c0.862-6.209,1.294-10.592,1.294-13.155c0-2.719-0.393-4.601-1.178-5.646
				c-0.783-1.046-2.09-1.569-3.92-1.569c-2.274,0-4.483,1.556-6.627,4.667c-2.144,3.11-3.438,6.9-3.882,11.37
				c-0.576,5.621-1.007,10.666-1.294,15.137l-9.842,0.391c1.828-13.54,2.744-22.688,2.744-27.447c0-2.745-0.209-6.091-0.627-10.038
				l9.724-0.98c0.183,2.223,0.275,4.81,0.275,7.765h0.548c3.059-5.465,7.581-8.196,13.567-8.196
				C1066.457,586.886,1069.843,590.782,1069.843,598.571z"/>
			<path fill="#F7941E" d="M1111.133,587.709c0,3.687-2.595,10.386-7.783,20.096c-5.189,9.712-8.163,15.652-8.921,17.822
				c-2.301,6.483-4.979,10.96-8.039,13.431c-3.059,2.471-7.241,3.705-12.547,3.705v-7.567c3.294,0,6.136-1.053,8.528-3.158
				c2.392-2.104,3.588-4.763,3.588-7.979c0-3.555-1.588-9.75-4.765-18.586c-3.176-8.836-4.764-14.614-4.764-17.331l11.293-0.433
				c0,3.582,0.738,8.607,2.216,15.077c1.476,6.471,2.215,10.881,2.215,13.234h0.588c0.104-0.915,1.53-4.829,4.273-11.744
				c2.746-6.914,4.118-12.255,4.118-16.019L1111.133,587.709z"/>
			<path fill="#F7941E" d="M1151.913,603.904c0,6.378-2.032,11.81-6.098,16.293c-4.064,4.482-9.286,6.724-15.665,6.724
				c-4.444,0-8.261-1.627-11.449-4.882c-3.19-3.254-4.783-7.561-4.783-12.92c0-6.354,2.038-11.726,6.116-16.116
				c4.078-4.392,9.319-6.588,15.725-6.588c4.469,0,8.278,1.576,11.431,4.726C1150.338,594.291,1151.913,598.545,1151.913,603.904z
				 M1141.993,604.767c0-3.241-0.7-5.901-2.099-7.979s-3.3-3.117-5.705-3.117c-3.085,0-5.588,1.555-7.509,4.666
				c-1.921,3.11-2.883,6.535-2.883,10.273c0,3.242,0.707,5.902,2.118,7.98s3.333,3.117,5.765,3.117c3.162,0,5.672-1.536,7.528-4.608
				C1141.065,612.027,1141.993,608.583,1141.993,604.767z"/>
			<path fill="#F7941E" d="M1193.479,598.571c0,2.301-0.354,6.614-1.06,12.94s-1.059,10.953-1.059,13.881l-10.116,0.391
				c0-1.253,0.431-4.984,1.293-11.194c0.863-6.209,1.295-10.592,1.295-13.155c0-2.719-0.393-4.601-1.177-5.646
				c-0.784-1.046-2.091-1.569-3.922-1.569c-2.274,0-4.482,1.556-6.626,4.667c-2.144,3.11-3.438,6.9-3.882,11.37
				c-0.575,5.621-1.007,10.666-1.295,15.137l-9.841,0.391c1.828-13.54,2.743-22.688,2.743-27.447c0-2.745-0.209-6.091-0.626-10.038
				l9.725-0.98c0.182,2.223,0.273,4.81,0.273,7.765h0.549c3.059-5.465,7.582-8.196,13.568-8.196
				C1190.092,586.886,1193.479,590.782,1193.479,598.571z"/>
			<path fill="#F7941E" d="M1234.455,596.257c0,7.791-8.379,11.844-25.135,12.157c0,3.45,0.64,6.031,1.922,7.743
				c1.279,1.712,3.515,2.568,6.704,2.568c4.182,0,8.666-1.347,13.449-4.038l-1.216,7.764c-3.895,2.719-8.836,4.077-14.821,4.077
				c-5.332,0-9.273-1.6-11.822-4.803c-2.549-3.201-3.824-7.443-3.824-12.725c0-6.822,2.138-12.293,6.411-16.41
				c4.275-4.117,9.339-6.176,15.195-6.176c4.052,0,7.229,0.837,9.529,2.509C1233.252,590.649,1234.455,593.095,1234.455,596.257z
				 M1225.711,597.042c0-2.536-1.949-3.805-5.843-3.805c-2.223,0-4.327,0.818-6.314,2.451c-1.985,1.635-3.28,3.979-3.88,7.039
				C1220.365,602.519,1225.711,600.623,1225.711,597.042z"/>
			<path fill="#F7941E" d="M1285.822,587.748l-2.079,7.961c-2.195-0.732-4.706-1.099-7.528-1.099c-3.426,0-6.104,1.327-8.038,3.98
				s-2.901,5.72-2.901,9.194c0,7.294,2.77,10.94,8.313,10.94c3.161,0,6.639-1.149,10.431-3.45l-1.256,7.763
				c-3.189,2.327-7.059,3.49-11.606,3.49c-5.387,0-9.366-1.692-11.939-5.078c-2.576-3.385-3.863-7.574-3.863-12.566
				c0-6.039,2.065-11.195,6.195-15.47c4.13-4.273,9.541-6.411,16.233-6.411C1280.843,587.003,1283.521,587.252,1285.822,587.748z"/>
			<path fill="#F7941E" d="M1324.721,586.376c-2.093,14.169-3.137,23.959-3.137,29.369c0,2.746,0.221,5.83,0.666,9.254l-9.646,1.1
				c-0.158-2.171-0.235-4.692-0.235-7.569h-0.589c-2.901,5.308-7.215,7.96-12.939,7.96c-3.294,0-5.778-1.233-7.451-3.704
				c-1.672-2.472-2.511-5.849-2.511-10.138c0-6.168,2.158-11.73,6.472-16.684c4.313-4.955,11.019-7.549,20.115-7.784l1.726-1.216
				L1324.721,586.376z M1314.683,594.375c-5.464,0.053-9.478,1.647-12.039,4.784s-3.843,7.373-3.843,12.705
				c0,4.836,1.516,7.254,4.549,7.254c2.352,0,4.517-1.712,6.488-5.137c1.975-3.424,3.224-6.699,3.746-9.823
				C1314.107,601.035,1314.474,597.773,1314.683,594.375z"/>
			<path fill="#F7941E" d="M1366.363,598.571c0,2.301-0.354,6.614-1.06,12.94c-0.705,6.326-1.059,10.953-1.059,13.881l-10.116,0.391
				c0-1.253,0.431-4.984,1.294-11.194c0.862-6.209,1.295-10.592,1.295-13.155c0-2.719-0.394-4.601-1.177-5.646
				c-0.785-1.046-2.093-1.569-3.922-1.569c-2.274,0-4.482,1.556-6.627,4.667c-2.143,3.11-3.438,6.9-3.881,11.37
				c-0.576,5.621-1.007,10.666-1.295,15.137l-9.843,0.391c1.829-13.54,2.745-22.688,2.745-27.447c0-2.745-0.209-6.091-0.627-10.038
				l9.725-0.98c0.182,2.223,0.274,4.81,0.274,7.765h0.549c3.058-5.465,7.581-8.196,13.567-8.196
				C1362.977,586.886,1366.363,590.782,1366.363,598.571z"/>
			<path fill="#F7941E" d="M1414.162,588.494l-1.06,7.803c-3.686-0.157-6.704-0.235-9.058-0.235
				c-1.097,7.11-1.646,12.392-1.646,15.843c0,2.613,0.287,4.403,0.862,5.372c0.574,0.966,1.608,1.449,3.099,1.449
				c2.3,0,4.745-0.81,7.332-2.431l-1.334,7.136c-2.352,1.857-5.279,2.784-8.783,2.784c-3.713,0-6.352-0.908-7.92-2.725
				c-1.568-1.817-2.354-4.882-2.354-9.195c0-3.189,0.653-9.268,1.961-18.233c-1.255,0-3.045,0.078-5.372,0.235l1.099-7.726
				c1.986,0.158,3.803,0.236,5.449,0.236c0.262-1.829,0.825-5.477,1.688-10.94l8.703-1.137c-0.443,2.482-1.057,6.508-1.842,12.077
				C1407.078,588.808,1410.136,588.703,1414.162,588.494z"/>
			<path fill="#F7941E" d="M1453.57,596.257c0,7.791-8.379,11.844-25.135,12.157c0,3.45,0.641,6.031,1.922,7.743
				c1.28,1.712,3.515,2.568,6.705,2.568c4.183,0,8.665-1.347,13.45-4.038l-1.216,7.764c-3.896,2.719-8.837,4.077-14.822,4.077
				c-5.333,0-9.273-1.6-11.823-4.803c-2.548-3.201-3.823-7.443-3.823-12.725c0-6.822,2.137-12.293,6.411-16.41
				s9.339-6.176,15.196-6.176c4.051,0,7.227,0.837,9.527,2.509C1452.368,590.649,1453.57,593.095,1453.57,596.257z
				 M1444.826,597.042c0-2.536-1.947-3.805-5.843-3.805c-2.222,0-4.326,0.818-6.312,2.451c-1.988,1.635-3.282,3.979-3.883,7.039
				C1439.48,602.519,1444.826,600.623,1444.826,597.042z"/>
			<path fill="#F7941E" d="M1492.9,586.376c-2.094,14.169-3.137,23.959-3.137,29.369c0,2.746,0.221,5.83,0.666,9.254l-9.646,1.1
				c-0.158-2.171-0.235-4.692-0.235-7.569h-0.59c-2.9,5.308-7.214,7.96-12.939,7.96c-3.294,0-5.777-1.233-7.45-3.704
				c-1.672-2.472-2.511-5.849-2.511-10.138c0-6.168,2.158-11.73,6.472-16.684c4.313-4.955,11.019-7.549,20.115-7.784l1.726-1.216
				L1492.9,586.376z M1482.862,594.375c-5.464,0.053-9.478,1.647-12.039,4.784s-3.843,7.373-3.843,12.705
				c0,4.836,1.516,7.254,4.549,7.254c2.352,0,4.517-1.712,6.488-5.137c1.975-3.424,3.223-6.699,3.746-9.823
				C1482.286,601.035,1482.652,597.773,1482.862,594.375z"/>
			<path fill="#F7941E" d="M1528.387,587.748l-2.078,7.961c-2.197-0.732-4.706-1.099-7.529-1.099c-3.424,0-6.104,1.327-8.039,3.98
				c-1.936,2.653-2.901,5.72-2.901,9.194c0,7.294,2.771,10.94,8.313,10.94c3.164,0,6.641-1.149,10.431-3.45l-1.255,7.763
				c-3.19,2.327-7.058,3.49-11.606,3.49c-5.385,0-9.365-1.692-11.94-5.078c-2.574-3.385-3.862-7.574-3.862-12.566
				c0-6.039,2.064-11.195,6.196-15.47c4.13-4.273,9.542-6.411,16.233-6.411C1523.405,587.003,1526.086,587.252,1528.387,587.748z"/>
			<path fill="#F7941E" d="M1568.579,598.571c0,2.301-0.353,6.614-1.06,12.94c-0.706,6.326-1.059,10.953-1.059,13.881l-10.117,0.391
				c0-1.253,0.432-4.984,1.295-11.194c0.862-6.209,1.293-10.592,1.293-13.155c0-2.719-0.391-4.601-1.176-5.646
				c-0.784-1.046-2.092-1.569-3.921-1.569c-2.274,0-4.485,1.556-6.627,4.667c-2.145,3.11-3.438,6.9-3.883,11.37
				c-0.574,5.621-1.006,10.666-1.293,15.137l-9.921,0.391c0.47-3.424,1.607-13.266,3.41-29.526
				c1.047-9.959,1.568-18.625,1.568-25.997l10.785-0.628c0,1.151-0.49,5.145-1.471,11.98c-0.981,6.835-1.68,11.325-2.098,13.47h0.55
				c3.058-5.465,7.58-8.196,13.565-8.196C1565.192,586.886,1568.579,590.782,1568.579,598.571z"/>
		</g>
		<g>
			<rect x="846.374" y="597.923" fill="#F7941E" width="128.278" height="8.445"/>
		</g>
		<g>
			<rect x="1585.297" y="597.923" fill="#F7941E" width="128.279" height="8.445"/>
		</g>
	</g>
</g>
</svg>
